# xmcd
#
# Track frame offsets: 
#        150
#        13965
#        49793
#        73785
#        88805
#        126473
#        158810
#        203778
#        225418
#        249045
#        284073
#
# Disc length: 4113 seconds
#
# Revision: 2
# Processed by: cddbd v1.5.1PL0 Copyright (c) Steve Scherf et al.
# Submitted via: ExactAudioCopy v0.95a5
#
DISCID=9c100f0b
DTITLE=Various artisys - Swing Journal Gold Disc Best
DYEAR=2002
DGENRE=Jazz
TTITLE0=Dave Brubeck and Paul Desmond - Stardust
TTITLE1=Charlie Parker and Dizzy Gillespie - All the Things You Are ? 52
TTITLE1=nd Street Theme
TTITLE2=Art Farmer and Gigi Gryce - Blue Lights
TTITLE3=Hampton Hawes - I Got Rhythm
TTITLE4=George Wallington - Bohemia After Dark
TTITLE5=George Wallington - What's New
TTITLE6=Sonny Rollins - Moritat
TTITLE7=Art Tatum and Ben Webster - Gone with the Wind
TTITLE8=Kenny Drew - When You Wish Upon a Star
TTITLE9=Mal Waldron - Yesterdays
TTITLE10=Art Pepper - You'd Be So Nice to Come Home To
EXTD=YEAR: 2002
EXTT0=
EXTT1=
EXTT2=
EXTT3=
EXTT4=
EXTT5=
EXTT6=
EXTT7=
EXTT8=
EXTT9=
EXTT10=
PLAYORDER=
